<svg width="30" height="30" viewBox="0 0 30 30" fill="none" xmlns="http://www.w3.org/2000/svg">
<path d="M14.1998 18.2578V21.9844L7.93192 17.8125L10.731 15.9442L14.1998 18.2578ZM22.7076 13.6473V16.3192L20.7054 14.9833L22.7076 13.6473ZM15 30C6.71652 30 0 23.2835 0 15C0 6.71652 6.71652 0 15 0C23.2835 0 30 6.71652 30 15C30 23.2835 23.2835 30 15 30ZM24.308 12.154C24.308 12.1172 24.3047 12.0837 24.3013 12.0502C24.3013 12.0368 24.298 12.0268 24.2946 12.0167C24.2899 11.9801 24.2809 11.9441 24.2679 11.9096C24.2612 11.8895 24.2545 11.8694 24.2478 11.8527C24.2411 11.8393 24.2344 11.8259 24.231 11.8125C24.221 11.7958 24.2143 11.7757 24.2042 11.7589C24.1975 11.7455 24.1908 11.7355 24.1808 11.7221C24.1708 11.7054 24.1574 11.6886 24.1473 11.6719C24.1373 11.6585 24.1306 11.6484 24.1205 11.6384C24.1071 11.625 24.0938 11.6083 24.0804 11.5949C24.0703 11.5848 24.0603 11.5748 24.0469 11.5647C24.0335 11.5513 24.0167 11.5379 24 11.5279C23.9866 11.5179 23.9766 11.5078 23.9632 11.5011C23.9598 11.4978 23.9531 11.4944 23.9498 11.4911L15.442 5.82589C15.308 5.73549 15.154 5.69197 15 5.69197C14.8426 5.69197 14.6886 5.73884 14.5547 5.82589L6.04688 11.4877C6.04353 11.4911 6.03683 11.4944 6.03348 11.4978L5.99665 11.5246C5.97991 11.5379 5.96652 11.548 5.95312 11.5614C5.94308 11.5714 5.93304 11.5815 5.91964 11.5915C5.90625 11.6049 5.89286 11.6183 5.87946 11.635C5.86953 11.6454 5.86057 11.6566 5.85268 11.6685C5.83929 11.6853 5.82924 11.702 5.8192 11.7188C5.8125 11.7321 5.80246 11.7422 5.79576 11.7556C5.78571 11.7723 5.77567 11.7924 5.76897 11.8092C5.76228 11.8225 5.75558 11.8359 5.75223 11.8493C5.74554 11.8694 5.73884 11.8895 5.73214 11.9062C5.72879 11.9196 5.7221 11.933 5.71875 11.9464C5.71205 11.9699 5.7087 11.99 5.70536 12.0134C5.70201 12.0234 5.70201 12.0368 5.69866 12.0469C5.69531 12.0804 5.69196 12.1172 5.69196 12.1507V17.8158C5.69196 17.8493 5.69531 17.8862 5.69866 17.9196C5.70201 17.9297 5.70201 17.9431 5.70536 17.9531C5.71008 17.9898 5.71907 18.0257 5.73214 18.0603C5.73884 18.0804 5.74554 18.1004 5.75223 18.1172C5.75893 18.1306 5.76562 18.144 5.76897 18.1574C5.77567 18.1741 5.78571 18.1942 5.79576 18.2109C5.80246 18.2243 5.80915 18.2344 5.8192 18.2478C5.83929 18.2779 5.85938 18.3047 5.87946 18.3315C5.89286 18.3449 5.90625 18.3616 5.91964 18.375C5.92969 18.385 5.93973 18.3951 5.95312 18.4051C5.96652 18.4185 5.98326 18.4319 5.99665 18.442C6.01004 18.452 6.02009 18.4621 6.03348 18.4688C6.03683 18.4721 6.04353 18.4754 6.04688 18.4788L14.5547 24.1406C14.8225 24.3181 15.1741 24.3181 15.442 24.1406L23.9498 18.4788C23.9531 18.4754 23.9598 18.4721 23.9632 18.4688L24 18.442L24.0469 18.4051C24.0569 18.3951 24.067 18.385 24.0804 18.375C24.0938 18.3616 24.1071 18.3482 24.1205 18.3315C24.144 18.3047 24.1641 18.2779 24.1808 18.2478C24.1875 18.2344 24.1975 18.2243 24.2042 18.2109C24.2143 18.1942 24.2243 18.1775 24.231 18.1574C24.2377 18.144 24.2444 18.1306 24.2478 18.1172C24.2545 18.0971 24.2612 18.077 24.2679 18.0603C24.2712 18.0469 24.2779 18.0335 24.2812 18.0201C24.2879 17.9967 24.2913 17.9766 24.2946 17.9531C24.298 17.9431 24.298 17.9297 24.3013 17.9196C24.3047 17.8862 24.308 17.8493 24.308 17.8158V12.154ZM15.8002 11.7087V7.98215L22.0681 12.154L19.269 14.0223L15.8002 11.7087ZM7.29241 16.3192V13.6473L9.29464 14.9833L7.29241 16.3192ZM15 16.8717L12.1708 14.9833L15 13.0949L17.8292 14.9833L15 16.8717ZM22.0681 17.8125L15.8002 21.9844V18.2578L19.269 15.9442L22.0681 17.8125ZM10.731 14.0223L7.93192 12.154L14.1998 7.98215V11.7087L10.731 14.0223Z" fill="white"/>
</svg>
